<?xml version="1.0" encoding="UTF-8"?>
<svg width="700pt" height="700pt" version="1.1" viewBox="0 0 700 700" xmlns="http://www.w3.org/2000/svg">
 <path fill="#d0d0d0" d="m70 254.62v152.58c0 14.098 11.48 25.527 25.219 25.527h102.05l139.25 94.828c21.504 17.918 38.934 9.7891 38.934-18.465v-356.36c0-28.117-17.52-36.312-38.934-18.465l-139.25 94.824h-102.05c-13.926 0-25.219 11.148-25.219 25.531zm127.27-0.074219h9.2148l7.0781-5.9023 136.43-91.957 0.38672 349.29-136.82-92.805-7.0781-5.8984h-111.27c0.29297 0 0.23438-152.65 0.23438-152.65 0-0.25391 101.82-0.074219 101.82-0.074219zm344.16-106.5c7.6562 10.383 15.348 22.785 22.551 37.156 20.676 41.266 33.105 89.914 33.105 145.71 0 55.793-12.43 104.44-33.105 145.71-7.2031 14.371-14.895 26.77-22.551 37.152-4.5 6.1016-7.9062 10.098-9.6836 11.938-4.8789 5.0586-4.7383 13.113 0.32031 17.996 5.0586 4.8828 13.113 4.7383 17.996-0.32031 2.5312-2.6211 6.6641-7.4688 11.852-14.504 8.4922-11.52 16.949-25.148 24.824-40.859 22.387-44.68 35.801-97.191 35.801-157.11 0-59.918-13.414-112.43-35.801-157.11-7.875-15.707-16.332-29.34-24.824-40.855-5.1875-7.0391-9.3203-11.883-11.852-14.508-4.8828-5.0586-12.938-5.1992-17.996-0.32031-5.0586 4.8828-5.1992 12.941-0.32031 17.996 1.7773 1.8398 5.1836 5.8359 9.6836 11.938zm-55.883 48c4.875 9.1797 9.7656 19.664 14.336 31.25 13.031 33.039 20.836 68.125 20.836 103.61 0 35.488-7.8047 70.574-20.836 103.61-4.5703 11.586-9.4609 22.07-14.336 31.25-2.8867 5.4258-5.082 9.1562-6.2578 10.98-3.8008 5.9141-2.0859 13.789 3.8242 17.59 5.9141 3.8008 13.789 2.0859 17.59-3.8242 1.543-2.4023 4.0938-6.7305 7.3203-12.805 5.3086-9.9922 10.602-21.34 15.539-33.852 14.125-35.812 22.613-73.961 22.613-112.95 0-38.992-8.4883-77.141-22.613-112.95-4.9375-12.516-10.23-23.859-15.539-33.852-3.2266-6.0742-5.7773-10.406-7.3203-12.805-3.8008-5.9141-11.676-7.625-17.59-3.8242-5.9102 3.8008-7.625 11.672-3.8242 17.586 1.1758 1.8281 3.3711 5.5547 6.2578 10.984zm-45.566 76.383c7.4062 18.691 11.832 38.516 11.832 58.48s-4.4258 39.785-11.832 58.477c-4.4375 11.211-8.8281 19.438-11.586 23.711-3.8125 5.9062-2.1133 13.785 3.7891 17.594 5.9062 3.8125 13.785 2.1172 17.598-3.7891 3.6055-5.5859 8.7617-15.25 13.867-28.141 8.5039-21.473 13.621-44.371 13.621-67.852 0-23.484-5.1172-46.379-13.621-67.855-5.1055-12.887-10.262-22.555-13.867-28.137-3.8125-5.9062-11.691-7.6055-17.598-3.793-5.9023 3.8125-7.6016 11.688-3.7891 17.594 2.7578 4.2773 7.1484 12.504 11.586 23.711z" fill-rule="evenodd"/>
</svg>
